<svg xmlns="http://www.w3.org/2000/svg" width="72" height="72" viewBox="0 0 72 72"><title>Bien vendu</title><g id="Bien_vendus" data-name="Bien vendus"><g id="Bien_vendu" data-name="Bien vendu"><path d="M30.3952,37.331a1.857,1.857,0,0,1-1.3216-.5472l-6.999-6.999a1.1429,1.1429,0,0,1,1.6163-1.6163l6.7039,6.7036L48.3077,16.9129a1.1431,1.1431,0,1,1,1.6186,1.6146L31.7182,36.7825A1.8576,1.8576,0,0,1,30.3952,37.331Z" fill="#1e91ff"/><path d="M57.4523,6.9185H14.5477A5.9341,5.9341,0,0,0,8.631,12.8351V42.0972a5.9341,5.9341,0,0,0,5.9167,5.9167H34.95v16.013a1.05,1.05,0,0,0,2.1,0V48.0139H57.4523a5.9341,5.9341,0,0,0,5.9167-5.9167V12.8351A5.9341,5.9341,0,0,0,57.4523,6.9185ZM61.269,42.0972a3.821,3.821,0,0,1-3.8167,3.8167H14.5477a3.821,3.821,0,0,1-3.8167-3.8167V12.8351a3.8211,3.8211,0,0,1,3.8167-3.8167H57.4523a3.8211,3.8211,0,0,1,3.8167,3.8167Z" fill="#1e91ff"/></g></g></svg>