<svg xmlns="http://www.w3.org/2000/svg" width="72" height="72" viewBox="0 0 72 72"><title>calendrier</title><g id="Calendrier"><g id="Calendrier-2" data-name="Calendrier"><path d="M54.5229,9.4059H51.3516V9.113a2.1968,2.1968,0,0,0-2.1944-2.1945h-5.339A2.1968,2.1968,0,0,0,41.6239,9.113v.2929H29.63V9.113A2.1969,2.1969,0,0,0,27.435,6.9185H22.0958A2.1971,2.1971,0,0,0,19.901,9.113v.2929H17.4771a8.0076,8.0076,0,0,0-7.9986,7.9987v43.01a4.6977,4.6977,0,0,0,4.6925,4.6924H57.8289a4.6979,4.6979,0,0,0,4.6928-4.6924v-43.01A8.0079,8.0079,0,0,0,54.5229,9.4059Zm-10.848,2.0509V9.113a.1437.1437,0,0,1,.1433-.1435h5.339a.1437.1437,0,0,1,.1433.1435v2.6855a.1437.1437,0,0,1-.1433.1436h-5.339a.1438.1438,0,0,1-.1433-.1436Zm-21.723,0V9.113a.1438.1438,0,0,1,.1439-.1435H27.435a.1438.1438,0,0,1,.1435.1435v2.6855a.1438.1438,0,0,1-.1435.1436H22.0958a.1439.1439,0,0,1-.1439-.1436ZM60.4707,60.415a2.6447,2.6447,0,0,1-2.6418,2.6415H14.171a2.6445,2.6445,0,0,1-2.6416-2.6415V30.6014H60.4707Zm0-31.8645H11.5294V17.4046a5.9546,5.9546,0,0,1,5.9477-5.9478H19.901v.3417a2.1971,2.1971,0,0,0,2.1948,2.1945H27.435a2.211,2.211,0,0,0,2.1944-2.1945v-.3417H41.6239v.3417a2.1967,2.1967,0,0,0,2.1943,2.1945h5.339a2.211,2.211,0,0,0,2.1943-2.1945v-.3417h3.1714a5.9547,5.9547,0,0,1,5.9478,5.9478Z" fill="#1e91ff"/><rect x="19.0856" y="36.3549" width="4.7156" height="4.7156" rx="0.5188" fill="#1e91ff"/><rect x="33.5097" y="36.3549" width="4.7156" height="4.7156" rx="0.5188" fill="#1e91ff"/><rect x="47.9337" y="36.3549" width="4.7156" height="4.7156" rx="0.5188" fill="#1e91ff"/><rect x="19.0856" y="45.9715" width="4.7156" height="4.7156" rx="0.5188" fill="#1e91ff"/><rect x="33.5097" y="45.9715" width="4.7156" height="4.7156" rx="0.5188" fill="#1e91ff"/><rect x="47.9337" y="45.9715" width="4.7156" height="4.7156" rx="0.5188" fill="#1e91ff"/></g></g></svg>