<svg width="96" height="96" viewBox="0 0 96 96" xmlns="http://www.w3.org/2000/svg"><g fill="none" fill-rule="evenodd" stroke-linecap="round" stroke-linejoin="round" stroke="#1e91ff" stroke-width="2"><path d="M9.857 52.786l-5.794 3.046L5.17 49.38.482 44.811l6.478-.941L9.857 38l2.897 5.87 6.478.941-4.688 4.57 1.107 6.45zM34.857 52.786l-5.794 3.046 1.107-6.452-4.688-4.569 6.478-.941L34.857 38l2.897 5.87 6.478.941-4.688 4.57 1.107 6.45zM60.857 52.786l-5.794 3.046 1.107-6.452-4.688-4.569 6.478-.941L60.857 38l2.897 5.87 6.478.941-4.688 4.57 1.107 6.45zM85.857 52.786l-5.794 3.046 1.107-6.452-4.688-4.569 6.478-.941L85.857 38l2.897 5.87 6.478.941-4.688 4.57 1.107 6.45z"/></g></svg>