<svg xmlns="http://www.w3.org/2000/svg" width="72" height="72">
  <g data-name="Localisation" fill="#1e91ff">
    <path d="M36 6.058a20.463 20.463 0 0 1 20.44 20.44c0 3.23-1.8 10.003-10.374 23.916C41.7 57.499 37.26 63.671 36 65.401c-1.26-1.727-5.69-7.887-10.066-14.987C17.36 36.501 15.56 29.73 15.56 26.498A20.463 20.463 0 0 1 36 6.058m0-2a22.465 22.465 0 0 0-22.44 22.44c0 5.075 3.59 13.475 10.672 24.965 5.195 8.43 10.462 15.54 10.515 15.61a1.56 1.56 0 0 0 2.506 0c.053-.07 5.32-7.18 10.516-15.61 7.081-11.49 10.671-19.89 10.671-24.965A22.465 22.465 0 0 0 36 4.058z"/>
    <path d="M36 15.365a9.614 9.614 0 1 1-9.614 9.614A9.625 9.625 0 0 1 36 15.365m0-2A11.614 11.614 0 1 0 47.614 24.98 11.627 11.627 0 0 0 36 13.365z"/>
  </g>
</svg>