<?xml version="1.0" encoding="UTF-8"?>
<!-- Generator: Adobe Illustrator 18.0.0, SVG Export Plug-In . SVG Version: 6.00 Build 0)  -->
<!DOCTYPE svg PUBLIC "-//W3C//DTD SVG 1.1//EN" "http://www.w3.org/Graphics/SVG/1.1/DTD/svg11.dtd">
<svg version="1.1" id="Calque_1" xmlns="http://www.w3.org/2000/svg" xmlns:xlink="http://www.w3.org/1999/xlink" x="0px" y="0px" viewBox="0 0 500 500" enable-background="new 0 0 500 500" xml:space="preserve">
<path fill="#FFFFFF" d="M426.2,422.5H76.8c-29.2,0-53.1-23.9-53.1-53.1V134.6c0-29.2,23.9-53.1,53.1-53.1h349.5  c29.2,0,53.1,23.9,53.1,53.1v234.8C479.4,398.6,455.5,422.5,426.2,422.5z"/>
<g>
	<path fill="#DC2730" d="M441.6,76.3c18.4,3.4,34.7,20.6,38.5,40.6c0.6,3.1,0.9,6.2,0.9,9.3c0,82.8,0,165.5,0,248.3   c0,26-18.2,47-44,50.7c-1.5,0.2-3,0.2-4.5,0.2c-121.6,0-243.3,0-364.9,0c-25,0-47.8-22.9-47.8-47.9c0-85,0-170,0-255   c0-20.7,18.8-42.8,39.2-46.2c0.9,1.9,2.7,1,4,1c124.7,0,249.4,0,374.1,0C438.6,77.2,440.4,77.9,441.6,76.3z M249.9,84.6   c-59.9,0-119.7,0-179.6,0c-3.7,0-7.4,0.2-11.1,1.2c-15.4,4-30.7,20.3-30.7,39.9c-0.1,81.1,0,162.2,0,243.4c0,2.2,0,4.5,0.2,6.7   c1.2,23.4,18.6,40.2,41.9,40.2c119.7,0.1,239.5,0,359.2,0c6.5,0,12.7-1,18.5-4c16-8.3,23.5-21.7,23.5-39.6c0-81.5,0-163,0-244.5   c0-1.1-0.1-2.2-0.1-3.4c-0.4-20.3-18.6-40.3-41.8-40.1C369.9,84.9,309.9,84.6,249.9,84.6z"/>
	<path fill="#DC232C" d="M441.6,76.3c-1.2,1.7-3,1-4.5,1c-124.7,0-249.4,0-374.1,0c-1.3,0-3.1,0.8-4-1c1.5-0.1,3-0.2,4.5-0.2   c124.7,0,249.4,0,374.1,0C438.9,76,440.3,76.2,441.6,76.3z"/>
	<path fill="#DC232C" d="M401.1,225.1c-2.2,0-3.3,0-4.4,0c-51.3,0-102.5,0-153.8,0.1c-2.7,0-4.7-0.7-6.7-2.5   c-21.1-18.4-42.3-36.6-63.4-55.1c-2.9-2.5-4.5-2.9-7.5,0c-15.9,15.4-32,30.5-48.1,45.8c-1.5,1.5-3.1,2.2-5.3,2.1   c-3.6-0.2-7.2,0-10.9,0c-0.1-1.8,1.3-2.3,2.1-3.1c18.6-17.9,37.4-35.8,55.9-53.8c2.8-2.8,5.7-3.6,9.4-3.1   c22.6,3.2,45.3,6.5,67.9,9.3c7.7,1,6.3,1.7,6.5-5.6c0.1-2.9,0.1-5.8,0-8.6c0-1.6,0.5-2.2,2.1-2.2c7.6,0.1,15.3,0.1,22.9,0   c2.1,0,2.1,1.2,2,2.6c0,5.1-0.1,10.3,0,15.4c0,1.3-0.8,3.2,0.8,3.7c1.9,0.6,4.5,1.1,6-0.6c3.7-3.9,8-4.8,13.2-4.6   c9.1,0.3,18.2,0.1,27.4,0c2.3,0,4,0.5,5.8,2c6.1,5,12.3,9.8,18.5,14.7c1.1,0.8,2.1,2.1,3.6,1.8c4-0.8,6.5,1.6,9.3,3.8   c14.7,11.9,29.4,23.7,44.1,35.5C399.2,223.2,399.7,223.8,401.1,225.1z M256.2,189.3c0.1,0.6,0.1,0.9,0.2,1.1   c8.8,8.4,17.6,16.7,26.3,25.1c1.1,1.1,2.3,1.3,3.7,1.3c16.6,0,33.2-0.1,49.9,0c2.4,0,3.3-0.5,3.3-3.1c-0.2-7.2-0.1-14.5,0-21.7   c0-1.8-0.5-3-1.9-4.2c-6.4-5.2-12.8-10.4-19.1-15.8c-1.7-1.5-2.8-1.4-4.5-0.1c-5.4,4.2-11.2,8-16.4,12.5c-4.3,3.7-8.9,5.2-14.6,4.9   C274.1,189,265.2,189.3,256.2,189.3z"/>
	<path fill="#DC2730" d="M365.1,314.6c-2.1,0.3-2-1.1-1.7-2.3c0.5-1.5,0.4-3.5,2.9-3.8c5.4-0.8,5.5-0.9,3.8-6.2   c-3-9.8-6.2-19.5-9.3-29.3c-0.3-0.8-0.3-2.5-1.7-1.7c-5,2.9-10.9,4.8-13.1,11.1c-0.8,2.4-1.1,4.2,2.1,4.6c1.1,0.1,1.6,0.4,1.4,1.6   c-0.4,2.5-3.5,5.2-6.2,5.2c-5.7,0-11.5,0.1-17.2-0.1c-1.3,0-3.9,1.3-3.6-1.5c0.2-2.3,0.4-5.8,3.8-5.4c4.4,0.4,6-1.9,7.6-5.2   c4.4-9.2,8.9-18.3,13.5-27.4c1.9-3.8,1.8-4.4-2.3-5.2c-1.6-0.3-2-0.8-1.2-2.2c0.8-1.4,1-3.1,2.5-4.1c6.9,1.6,13.9,1.3,20.9,0.2   c0.1,0,0.1-0.2,0.2-0.3c1.4,0.2,4-0.9,3.8,1.4c-0.2,1.7-0.5,4.7-3.7,4.7c-3.7,0-5.9,2.4-7.6,5.3c-1.5,2.7-2.8,5.6-4.1,8.3   c-0.2,0.5-0.6,1-0.1,1.3c0.5,0.3,1.3,0.5,1.7,0.2c7-3.7,14.2-7.3,20.1-12.8c0.7-0.7,1-1.9-0.1-2.1c-5.3-0.6-1.6-3.1-1.1-4.9   c0.1-0.2,0.3-0.4,0.5-0.6c5.7,0,11.4,0.1,17.1,0.1c1,0,2.3,0.4,2.8-1.1c1.5,0.2,4.2-1,4,1.6c-0.2,1.8-0.3,4.7-3.9,4.9   c-6.5,0.4-11,5.5-16.5,8.3c-1.5,0.8-2.8,2.5-4.3,2.8c-4.5,1.1-4.1,3.6-3.2,7.2c3.3,12.7,8,24.9,11.7,37.5c0.4,1.5,1.1,2.9,2.7,3.4   c1.4,0.4,3,0.2,2.1,2.3c-0.7,1.7-0.5,4.2-3.5,4.1c-2.1-0.1-4.2,0-6.4,0c-1.1-2.2-3.1-1.2-4.7-1.1   C371.4,313.9,368,312.3,365.1,314.6z"/>
	<path fill="#DC2730" d="M323.1,277.8c-4.2,5.4-8.2,10.5-12.1,15.7c-1,1.3-2.2,1.4-3.6,1.4c-14.2,0-28.5,0-42.7-0.1   c-0.9,0-3,1-2.7-1.1c0.2-1.5,0.4-4.3,2.5-3.9c6.2,1.1,7.3-3.3,9.2-7.4c4.1-9,8.3-17.9,12.5-26.8c0.9-1.8,1.7-3.4-1.1-4.3   c-1-0.3-2.5-0.9-1.6-2.3c1-1.6,0.3-4.6,3.5-4.6c13,0,26,0,39,0c1.7,0,2.1,0.9,2.2,2.3c0.1,3.9,0.2,7.7,0.3,11.6   c0.1,3.2-2.9,2.5-4.6,3.4c-1.9,0.9-2.2-0.9-2.7-2.1c-2.4-5.9-3.9-6.2-10.1-7c-7.5-0.9-12.1,1.6-14.2,8.8c-0.4,1.4-2.4,2.7-1.3,3.9   c1,1.1,3.1,0.5,4.7,0c2.4-0.8,4.7-1.4,5.7-4.3c0.9-2.4,4.5-3.5,6.9-2.6c1.4,0.5,0.7,1.4,0.3,2.1c-2.9,6-5.8,11.9-8.6,17.9   c-1.2,2.6-3.4,1.7-5.2,1.5c-2.2-0.2-0.9-1.9-0.7-2.9c0.5-2.2-1.1-3-2.5-3.6c-1.7-0.8-3.6-0.9-5.2,0.7c-3.1,3.2-5.2,6.9-6.3,11.3   c-0.5,2.1,0.9,2.2,2.1,2.7c7.6,3.4,14.2,0.6,20.5-3.3c3.4-2.1,6.8-4.5,9.3-8C318.7,273.7,320.7,277.2,323.1,277.8z"/>
	<path fill="#DC2730" d="M144.5,240.7c3.2-0.5,7.4,0.6,11.1,3.2c1.4,1,2.1,0.9,3-0.4c0.3-0.4,0.8-0.7,1.2-0.9   c1.5-0.7,3.2-1.4,4.7-0.7c1.7,0.8,0.9,2.7,0.8,4.1c-0.4,4.2-1.6,8.2-2.2,12.4c-0.4,3.3-4.2,1.5-6.4,2.2c-2,0.7-1.8-1.1-2.2-2.1   c-2.9-8.4-13-12.6-20.1-8.4c-1.9,1.1-3.5,2.7-3.7,4.9c-0.3,2.4,0.7,4.3,3.4,5c5.2,1.3,10.2,3.4,15.2,5.2c8.2,2.9,8.5,9.2,5.5,15.4   c-4.3,9.1-12.5,12.6-21.9,13.4c-6.6,0.6-13.3,0.3-18.7-4.6c-1.6-1.5-2.3,0.6-3.2,1.4c-1,0.9-1,2.8-2.5,3.1   c-1.5,0.3-3.4,0.5-4.7-0.7c-1.2-1.1,0.1-2.3,0.3-3.4c1.2-4.6,2.6-9.1,3.8-13.7c0.5-1.8,0.9-3.4,3.4-3c2,0.3,4.2-0.9,5.2,2.6   c2.2,7.4,10.5,12.4,18.1,11.6c5.5-0.6,9.5-5.6,8.1-9.8c-0.5-1.7-1.4-2.4-3.1-2.7c-4.7-0.9-9.2-2.3-13.6-4.1   c-9.2-3.8-11.5-11.2-5.6-19.3C126.2,243.7,134,240.6,144.5,240.7z"/>
	<path fill="#DC2730" d="M194.7,293.8c-1.5-0.1-4.1,1.3-4-1.5c0.1-2,0-5.1,4-5c4.2,0.1,7.6-5.2,6.3-9.2c-0.8-2.3-3.1-2.4-5-2.8   c-8.8-1.5-13.3,0.7-18,8.4c-0.6,1-1.5,2.3,0.3,2.5c5.6,0.9,2.2,3.5,1.2,5.6c-6.1-0.1-12.2-0.1-18.2-0.1c-1,0-2-0.1-2.4,1.1   c-1.3-1.6-0.1-5.6,2.2-5.9c3.5-0.5,5.8-2.6,8.1-5c11.8-12.1,22.1-25.7,33.7-38.1c1.6-1.7,10.8-3.3,12.5-2c1.2,0.9,0.6,2.4,0.6,3.5   c-0.9,12.2-1.9,24.4-2.9,36.5c-0.2,2,0.1,3.4,1.8,4.9c2.8,2.5-0.1,4.5-1.1,6.7c-0.4-0.3-0.7-0.9-1.1-0.9   c-6.1-0.1-12.2-0.3-18.2-0.1C193.3,292.6,194.7,293.3,194.7,293.8z M205.9,251.2c-4,4.6-8,9.2-12.5,14.4c3.6,0,6.2-0.1,8.8,0   c1.9,0.1,2.7-0.7,3.1-2.5C206,259.4,206.8,255.6,205.9,251.2z"/>
	<path fill="#DC2730" d="M350.1,307.8c-1,3.4-3.2,4.3-6.7,4.3c-78.4-0.1-156.8-0.1-235.3-0.1c-1.2,0-2.4,0-4.3,0   c1.8-2.6,3.4-4.3,5.4-5.7c1,2.1,2.9,1.1,4.3,1.1c76.7,0.1,153.4,0,230.1,0.1C345.8,307.6,348,307.7,350.1,307.8z"/>
	<path fill="#DC232C" d="M273.6,244.3c-1.8,3.9-2.4,8.2-7.9,7c-1.4-0.3-1.8,1.1-2.2,2.1c-5.3,10.6-10.5,21.3-15.9,31.8   c-1.1,2.2-0.8,3.2,1.8,3c2.2-0.2,2.1,0.7,1.4,2.4c-1.2,2.9-2.6,4.6-6.3,4.3c-5.8-0.4-11.7-0.1-17.6-0.2c-1,0-3,0.9-2.9-1.1   c0.1-1.5,0.4-4.3,2.5-3.9c6.5,1.2,7.4-3.8,9.4-7.7c4.1-8.4,8.2-16.8,12.1-25.3c1.1-2.4,4.4-5.8-1.7-6.7c-1.1-0.1-0.8-1.5-0.4-2.2   c0.7-1.3,0.4-3.5,2.7-3.5C256.8,244.2,265,244.3,273.6,244.3z"/>
	<path fill="#DC232C" d="M350.1,307.8c-2.1-0.1-4.2-0.3-6.4-0.3c-76.7,0-153.4,0-230.1-0.1c-1.4,0-3.3,1-4.3-1.1   c1.2-0.1,2.5-0.3,3.7-0.3c78.2,0,156.4,0,234.6,0c1,0,2.2-0.3,3,0.1C352.6,307.2,350.6,307.4,350.1,307.8z"/>
	<path fill="#DC2730" d="M178.4,339.7c-2.1,2.7-4.4,5.4-6.3,8.2c-1.4,2-2.4,2.5-4.1,0.3c-1.6-2.1-3.6-3.8-5.4-5.7   c-0.6-0.6-1-1.6-2-1.3c-1.1,0.3-0.7,1.4-0.7,2.3c-0.1,1.9,0,3.7,0,5.6c0,1.5,0.6,3.4-2.1,3.4c-2.6,0-1.8-1.9-1.8-3.2   c-0.1-4-0.1-8,0-12c0-1.1-0.8-2.8,1-3.2c1.4-0.3,3-0.5,4.2,0.8c2,2.2,4.2,4.3,6,6.7c1.9,2.5,3.5,2.9,5.6,0.3c1.6-2.1,3.3-4,5-6.1   c0.8-1,1.5-1.8,3-1.9c2.8-0.2,4.4,0.2,4.1,3.7c-0.3,4.1-0.2,8.2,0,12.4c0.1,2.1-0.8,2.5-2.6,2.5c-1.7,0-2.8-0.2-2.7-2.4   c0.2-3.3,0-6.7,0-10C178.9,339.9,178.7,339.8,178.4,339.7z"/>
	<path fill="#DC2730" d="M256.3,341.8c2.3,1.2,5.3,2.2,4.5,5.5c-0.8,3.3-3.8,4.8-6.8,5c-5.3,0.4-10.7,0.1-16.1,0.2   c-1.5,0-1.9-0.6-1.9-2c0-5.4,0-10.7,0-16.1c0-1.4,0.4-2,1.9-2c4.7,0.1,9.5-0.2,14.2,0.3C257.6,333.2,259.4,337.2,256.3,341.8z    M246.7,349C246.7,349,246.7,349,246.7,349c1.6,0,3.2,0,4.8,0c1.6-0.1,3.4-0.3,3.5-2.4c0.1-2.2-1.4-3.1-3.3-3.2   c-3-0.1-6,0.1-8.9-0.1c-2.5-0.2-2.4,1.3-2.5,3c-0.1,2,0.5,3,2.7,2.8C244.2,348.9,245.5,349,246.7,349z M245.6,340.9   c1.9-0.2,3.7-0.2,5.6-0.5c1.3-0.2,2.4-1,2.4-2.5c0.1-1.7-1-2.5-2.5-2.8c-3.1-0.7-6.2-0.4-9.3-0.4c-1.1,0-1.3,0.8-1.5,1.7   C239.8,340.4,240.2,340.8,245.6,340.9z"/>
	<path fill="#DC2730" d="M197.7,352.1c-1.7-0.4-1.9-1.8-1.9-3.2c0-4.1,0.1-8.2,0-12.4c-0.1-2,0.7-2.6,2.6-2.6   c6.9,0.1,13.7,0.1,20.6,0c2,0,3,0.5,3,2.7c-0.1,4.2-0.1,8.5,0,12.7c0,1.7-0.7,2.6-2.3,2.8c-1.1-1.6-2.2-1.6-3.3,0   c-5.2,0-10.4,0-15.6,0C199.8,350.3,198.7,350.8,197.7,352.1z M208.6,349c9.2,0,9.1,0,8.8-9.1c-0.1-2.1-0.7-2.9-2.8-2.8   c-3.9,0.1-7.7,0.1-11.6,0c-2.3-0.1-2.9,0.8-3,3C199.8,349,199.7,349,208.6,349z"/>
	<path fill="#DC2730" d="M139.3,339.7c-2.2,2.8-4.5,5.6-6.6,8.5c-1.2,1.8-2.1,2.1-3.6,0.3c-2.4-2.8-5.2-5.3-8.5-8.6   c0,4-0.1,7,0,10.1c0,1.6-0.3,2.6-2.2,2.6c-1.9,0-1.9-1.1-1.9-2.5c0-4.4,0-8.7,0-13.1c0-3,1.6-4,4.2-2.2c2.2,1.5,4.1,3.5,5.6,5.8   c2.5,3.9,4.7,4,7.8,0.6c1.7-1.9,3.2-3.8,4.7-5.8c1.3-1.8,3.2-1.5,4.8-1.1c1.7,0.4,0.8,2.1,0.9,3.2c0.1,4.2,0,8.5,0.1,12.7   c0,1.5-0.3,2.3-2,2.3c-1.8,0-2.4-0.6-2.4-2.4c0.1-3.3,0-6.7,0-10C139.8,339.9,139.5,339.8,139.3,339.7z"/>
	<path fill="#DC2730" d="M390.8,352.1c-3.8,0.9-6.8,0-9.5-2.6c-1.3-1.3-2.8-2.5-4.5-3.4c-3.1-1.8-5.1-0.5-5.2,3   c0,1.6,0.5,3.4-2.2,3.3c-2.6-0.1-1.8-2-1.8-3.2c-0.1-4.1,0-8.2-0.1-12.3c0-1.9,0.3-3,2.6-2.9c5.6,0.2,11.2,0,16.8,0.1   c3,0,4.2,1.6,4.3,4.5c0.1,2.8,0.3,5.7-3.7,5.9c-1.6,0.1-3.3,0.2-3.7,1.8c-0.3,1.2,1.6,1.6,2.5,2.4   C387.8,349.8,389.8,350.2,390.8,352.1z M378.5,341.9c1.2,0,2.5-0.1,3.7,0c2,0.1,3.3-0.1,3.2-2.7c-0.1-2.4-1-3.3-3.4-3.2   c-2.4,0.1-4.7,0.1-7.1,0c-2.1-0.1-3.4,0.1-3.5,2.9c-0.1,3,1.4,3.2,3.7,3.1C376.2,341.8,377.4,341.9,378.5,341.9z"/>
	<path fill="#DC2730" d="M343.9,352.4c-2.9,0-5.8-0.1-8.6,0c-1.9,0.1-2.7-0.5-2.6-2.5c0.1-4.5,0.1-9,0-13.5   c-0.1-2.1,0.7-2.5,2.6-2.5c5.9,0.1,11.7,0,17.6,0c1,0,2.4-0.4,2.4,1.4c0.1,2-1.4,1.7-2.6,1.7c-4,0-8,0-12,0c-1.3,0-2.6,0-2.6,1.8   c0,1.9,1.4,1.7,2.6,1.8c1.7,0,3.5,0,5.2,0c1.3,0,2.5,0,2.5,1.9c-0.1,2-1.4,1.7-2.6,1.7c-1.9,0-3.7,0-5.6,0c-1.6,0-2.1,0.8-2.1,2.3   c0,1.5,0.5,2.3,2.1,2.3c4.1,0,8.2,0,12.4,0c1.2,0,2.6-0.4,2.7,1.6c0.1,2.3-1.6,1.8-2.8,1.8C349.7,352.4,346.8,352.4,343.9,352.4z"/>
	<path fill="#DC2730" d="M287.7,351.1c-0.1-5-0.1-9.9-0.2-14.9c0-1.5,0.4-2.2,2.1-2.3c1.8,0,2.4,0.6,2.3,2.4   c-0.1,3.2,0.1,6.5-0.1,9.7c-0.1,2.2,0.6,3.1,2.9,3c3.8-0.2,7.7-0.1,11.6,0c2.8,0.1,2.6,1.4,1.2,3.2c-0.1-0.2-0.2-0.3-0.3-0.5   c-0.2,0.2-0.3,0.4-0.5,0.5c-4.4,0-8.9,0-13.3,0C291.7,350.1,289.5,351.4,287.7,351.1z"/>
	<path fill="#DC232C" d="M319.7,342.9c0,2.4-0.1,4.7,0,7.1c0.1,1.7-0.4,2.5-2.3,2.4c-1.6,0-2.2-0.6-2.1-2.2c0.1-4.7,0.1-9.5,0-14.2   c0-1.8,0.8-2,2.3-2.1c1.7,0,2.2,0.6,2.2,2.2C319.6,338.4,319.7,340.6,319.7,342.9z"/>
	<path fill="#DC2730" d="M273.5,343.5c0,2.1,0,4.2,0,6.3c0,1.5-0.1,2.6-2.1,2.6c-2.2,0-2.4-1-2.4-2.7c0.1-4.5,0.1-8.9,0-13.4   c0-1.7,0.5-2.4,2.3-2.4c2,0,2.2,0.9,2.2,2.5C273.4,338.8,273.5,341.2,273.5,343.5z"/>
	<path fill="#DC2730" d="M99,343.1c0-2,0.1-4,0-6c-0.1-2,0-3.3,2.7-3.3c2.6,0,2.8,1.2,2.7,3.2c-0.1,4.4-0.1,8.7,0,13.1   c0.1,1.9-0.8,2.3-2.5,2.3c-1.5-0.1-3.1,0.2-2.9-2.2C99.1,347.9,99,345.5,99,343.1z M103.2,343.1c0-2,0-4,0-6c0-1-0.3-1.7-1.5-1.7   c-1.1,0-1.5,0.7-1.5,1.7c0,4.1,0,8.2,0,12.3c0,1,0.5,1.6,1.6,1.5c0.9-0.1,1.3-0.7,1.3-1.5C103.3,347.3,103.2,345.2,103.2,343.1z"/>
	<path fill="#DC232C" d="M396.5,242.7c-0.5,1.5-1.8,1.1-2.8,1.1c-5.7,0-11.4,0-17.1-0.1c0.3-1.1,1.1-1.2,2-1.2   C384.6,242.5,390.6,242.6,396.5,242.7z"/>
	<path fill="#DC232C" d="M158.9,292.9c0.4-1.3,1.5-1.2,2.4-1.1c6.1,0,12.2,0.1,18.2,0.1c-0.4,1.3-1.4,1.2-2.4,1.2   C171,293.1,164.9,293,158.9,292.9z"/>
	<path fill="#DC232C" d="M194.7,293.8c-0.1-0.4-1.4-1.1-0.3-1.1c6.1-0.2,12.1,0,18.2,0.1c0.4,0,0.7,0.6,1.1,0.9   C207.3,294.2,201,294,194.7,293.8z"/>
	<path fill="#DC232C" d="M367.3,242.7c-0.1,0.1-0.1,0.3-0.2,0.3c-7,1.1-13.9,1.5-20.9-0.2C353.3,242.2,360.3,242.3,367.3,242.7z"/>
	<path fill="#DC232C" d="M365.1,314.6c3-2.3,6.4-0.8,9.6-1c1.5-0.1,3.6-1.1,4.7,1.1C374.5,315,369.8,315.1,365.1,314.6z"/>
	<path fill="#DC232C" d="M287.7,351.1c1.8,0.3,4-1,5.5,1.1C291.3,351.8,289,353.8,287.7,351.1z"/>
	<path fill="#DC232C" d="M197.7,352.1c1.1-1.3,2.2-1.7,3.1,0.1C199.7,352.4,198.7,352.6,197.7,352.1z"/>
	<path fill="#DC232C" d="M216.4,352.2c1.1-1.6,2.2-1.6,3.3,0C218.6,352.2,217.5,352.2,216.4,352.2z"/>
	<path fill="#DC232C" d="M306.5,352.2c0.2-0.2,0.3-0.4,0.5-0.5c0.1,0.2,0.2,0.3,0.3,0.5C307.1,352.2,306.8,352.2,306.5,352.2z"/>
	<path fill="#FEFDFD" d="M321.8,201.4c0.4,0,0.8,0.1,1.1,0c1.6-0.5,4.6,1.3,4.5-1.4c0-2.1-2.9-0.8-4.4-1c-2-0.2-4.3,0.5-5.9-0.3   c-2-1-0.5-3.6-0.9-5.4c-0.1-0.7-0.3-1.3-1.1-1.3c-0.7,0-1.1,0.5-1.2,1.2c0,1-0.2,2,0,3c0.3,2.4-0.8,3-3,2.9c-2.2-0.2-4.5,0-6.7,0   c-0.9,0-1.8,0.1-1.7,1.4c0.1,0.9,0.9,1.1,1.7,1.1c2.1,0,4.2,0.1,6.4,0c2.5-0.2,3.6,0.5,3.5,3.3c0,1.6-1.3,4.5,1.2,4.5   c1.9,0,0.9-3,0.9-4.5c-0.1-2.7,0.9-3.6,3.4-3.3C320.3,201.5,321.1,201.4,321.8,201.4z"/>
	<path fill="#DC232C" d="M103.2,343.1c0,2.1,0,4.2,0,6.3c0,0.8-0.4,1.4-1.3,1.5c-1.1,0.1-1.6-0.5-1.6-1.5c0-4.1,0-8.2,0-12.3   c0-1,0.4-1.7,1.5-1.7c1.1,0,1.5,0.8,1.5,1.7C103.3,339.1,103.2,341.1,103.2,343.1z"/>
	<path fill="#DC2730" d="M321.8,201.4c-0.7,0-1.5,0.1-2.2,0c-2.6-0.3-3.5,0.6-3.4,3.3c0.1,1.5,1,4.5-0.9,4.5c-2.6,0-1.3-3-1.2-4.5   c0.1-2.7-1-3.5-3.5-3.3c-2.1,0.2-4.2,0-6.4,0c-0.8,0-1.6-0.2-1.7-1.1c-0.1-1.2,0.8-1.4,1.7-1.4c2.2,0,4.5-0.1,6.7,0   c2.2,0.1,3.3-0.5,3-2.9c-0.1-1,0-2,0-3c0-0.7,0.5-1.2,1.2-1.2c0.7,0,0.9,0.6,1.1,1.3c0.4,1.9-1.1,4.4,0.9,5.4   c1.6,0.8,3.9,0.1,5.9,0.3c1.6,0.2,4.4-1.1,4.4,1c0,2.7-3,0.9-4.5,1.4C322.6,201.5,322.2,201.4,321.8,201.4z"/>
</g>
</svg>