<?xml version="1.0" encoding="utf-8"?>
<!-- Generator: Adobe Illustrator 16.0.0, SVG Export Plug-In . SVG Version: 6.00 Build 0)  -->
<!DOCTYPE svg PUBLIC "-//W3C//DTD SVG 1.1//EN" "http://www.w3.org/Graphics/SVG/1.1/DTD/svg11.dtd">
<svg version="1.1" id="Livello_1" xmlns="http://www.w3.org/2000/svg" xmlns:xlink="http://www.w3.org/1999/xlink" x="0px" y="0px"
	 width="423px" height="119px" viewBox="0 0 423 119" enable-background="new 0 0 423 119" xml:space="preserve">
<path fill="#007A33" stroke="#007A33" stroke-width="0.765" stroke-miterlimit="3.8637" d="M17.694,16.884h90.394
	c2.853,0,5.167,2.312,5.167,5.164v83.824c0,2.851-2.313,5.164-5.167,5.164H17.694c-2.854,0-5.167-2.313-5.167-5.164V22.048
	C12.527,19.196,14.84,16.884,17.694,16.884L17.694,16.884z"/>
<path fill="#FFFFFF" stroke="#007B2C" stroke-width="0.765" stroke-miterlimit="3.8637" d="M23.696,6.086h385.291
	c2.855,0,5.168,2.312,5.168,5.164v76.321c0,2.851-2.312,5.164-5.168,5.164H23.696c-2.853,0-5.167-2.313-5.167-5.164V11.25
	C18.529,8.398,20.843,6.086,23.696,6.086L23.696,6.086z"/>
<path fill="#FFFFFF" stroke="#008633" stroke-width="0.765" stroke-miterlimit="3.8637" d="M13.78,13.128h90.394
	c2.854,0,5.167,2.312,5.167,5.164v83.822c0,2.853-2.313,5.164-5.167,5.164H13.78c-2.854,0-5.167-2.312-5.167-5.164V18.292
	C8.613,15.44,10.926,13.128,13.78,13.128L13.78,13.128z"/>
<path fill="#007A33" d="M42.015,75.461c0-9.651,7.886-17.474,17.614-17.474c9.729,0,17.615,7.823,17.615,17.474
	c0,9.651-7.886,17.473-17.615,17.473C49.901,92.934,42.015,85.112,42.015,75.461L42.015,75.461z"/>
<polygon fill="#007A33" points="24.331,59.772 34.276,70.712 59.829,48.297 83.851,71.477 94.562,61.073 60.67,26.646 
	24.331,59.772 "/>
<g>
	<g>
		<path fill="#007A33" d="M403.047,19.952h2.387c1.256,0,1.486,1.029,1.486,1.482c0,0.577-0.264,1.074-0.73,1.249
			c0.389,0.19,0.6,0.351,0.6,1.329c0,0.767,0,0.957,0.211,1.044v0.139h-1.092c-0.066-0.249-0.105-0.519-0.105-1.059
			c0-0.715-0.039-0.993-0.77-0.993h-1.02v2.052h-0.967V19.952z M405.172,22.259c0.512,0,0.762-0.197,0.762-0.715
			c0-0.277-0.111-0.687-0.689-0.687h-1.23v1.402H405.172z"/>
	</g>
</g>
<path fill="none" stroke="#007A33" stroke-width="0.612" stroke-miterlimit="3.8637" d="M400.654,22.668
	c0-2.372,1.836-4.208,4.131-4.208s4.209,1.836,4.209,4.208c0,2.295-1.914,4.131-4.209,4.131S400.654,24.963,400.654,22.668
	L400.654,22.668z"/>
<path fill="#007A33" d="M122.675,44.297c-2.459-1.682-3.279-3.492-4.375-6.262c-1.263-3.191-1.542-5.371-0.944-8.75
	c0.489-2.76,0.029-6.536,2.831-6.605l27.537-0.686c3.92-0.098,5.062,4.118,6.005,8.063c0.944,3.517,0.301,4.864-0.687,7.721
	c-1.497,4.328-6.199,13.27-7.635,8.922c-0.452-1.368-0.307-2.255-0.172-3.689c0.167-1.761,0.938-2.625,1.202-4.375
	c0.239-1.59,0.745-2.616,0.171-4.118c-0.659-1.726-1.745-2.65-3.517-3.174c-0.869-0.257-1.713-0.847-2.316-0.172
	c-0.407,0.455-0.515,0.601-0.257,1.544c0.687,4.118,0.812,6.579,0.943,10.809c0.232,7.441-1.263,11.6-1.286,19.044
	c-0.015,4.587,0.007,7.186,0.429,11.752c0.285,3.092,0.857,4.976,1.029,7.893c0,0.601,0.293,1.812-0.428,1.802l-11.839-0.172
	c-2.596-0.037-2.316-3.603-2.488-6.175c-0.429-5.405,1.233-8.876,2.316-14.499c1.09-5.659,2.486-8.701,3.26-14.412
	c0.32-2.365,0.536-3.705,0.6-6.091c0.07-2.612,0.267-4.15-0.343-6.691c-0.254-1.06-0.059-1.918-0.858-2.659
	c-0.417-0.387-0.735-0.547-1.286-0.687c-0.886-0.224-1.498-0.06-2.316,0.343c-1.065,0.524-1.586,1.194-1.973,2.316
	c-0.498,1.44,0.159,2.402,0.6,3.86c0.603,1.991,2.4,2.64,2.488,4.718c0.039,0.912,0.095,1.515-0.343,2.316
	C127.784,48.451,124.807,45.756,122.675,44.297L122.675,44.297z"/>
<path fill="#007A33" d="M166.511,57.679c0.429-0.988,0.889-1.448,1.63-2.23c1.104-1.167,2.021-1.493,3.345-2.402
	c3.33-2.287,5.061-3.432,8.835-5.405c0.344-0.257,1.032-0.14,1.544-0.515c1.107-0.809,1.04-2.086,0.772-3.432
	c-0.083-0.415-0.039-0.735-0.343-1.029c-0.457-0.442-1.004-0.114-1.629,0c-0.913,0.167-1.312,0.619-2.145,1.029
	c-3.666,1.807-5.805,2.753-9.179,5.062c-0.713,0.487-0.943,1.199-1.802,1.287c-0.438,0.045-0.756,0.083-1.115-0.171
	c-0.51-0.36-0.5-0.923-0.429-1.544c0.124-1.083,1.458-1.373,2.059-1.888c2.659-3.174,11.924-6.691,12.61-7.377
	c2.402-2.488,3.088-5.491,3.174-9.351c0-1.459-0.086-2.316-0.515-3.603c-0.6-1.802-1.286-2.917-2.745-4.032
	c-1.201-0.771-2.26-0.935-3.775-1.287c-3.422-0.795-5.506-0.283-9.007,0c-1.679,0.136-2.488,0.172-4.289,0.515
	c-5.318,0.686-6.863,7.549-7.463,11.667c-1.116,8.835-1.482,12.703-1.287,20.845c0.135,5.639-0.235,8.958,1.201,14.412
	c0.827,3.144,1.421,4.92,2.917,7.807c1.191,2.298,1.563,3.98,3.603,5.577c1.344,1.05,2.241,1.854,3.946,1.887l9.179,0.17
	c1.498,0.029,2.574-0.771,3.345-1.887c1.973-3.087,1.928-4.568,2.66-7.634c1.052-4.411,1.176-7.05,1.029-11.582
	c-0.079-2.419,0.51-4.026-0.6-6.176c-0.59-1.142-0.871-2.083-2.059-2.574c-0.745-0.307-1.307-0.46-2.059-0.171
	c-1.464,0.563-0.619,2.386-0.772,3.946c-0.111,1.132-0.067,1.779-0.086,2.917c-0.023,1.438,0.154,2.259,0,3.688
	c-0.184,1.711-0.035,2.886-1.029,4.29c-0.575,0.812-1.044,1.187-1.888,1.715c-0.995,0.623-1.656,1.064-2.831,1.03
	c-0.877-0.027-1.417-0.194-2.145-0.688c-0.748-0.506-0.986-1.031-1.458-1.801c-0.846-1.38-0.949-2.364-1.287-3.946
	c-0.393-1.839-0.649-2.937-0.429-4.805C166.104,59.076,166.143,58.528,166.511,57.679z M164.538,41.552
	c-1.165-0.752-1.029-1.458-1.201-3.345c-0.085-2.66-0.437-3.446,0-5.576c0.24-1.171-0.105-2.342,0.944-2.917
	c0.733-0.402,1.314-0.101,2.145,0c1.439,0.174,2.255,0.489,3.518,1.201c1.916,1.081,2.847,2.126,3.946,4.032
	c0.261,0.454,0.509,0.686,0.6,1.201c0.198,1.12,0.429,1.458-1.373,2.574c-1.887,1.287-3.056,2.442-5.404,2.831
	C166.491,41.754,165.578,42.224,164.538,41.552z"/>
<path fill="#007A33" d="M210.261,52.275c0.687,0.261,1.139,0.398,1.631,0.944c0.636,0.708,0.547,1.391,0.771,2.316
	c0.59,2.439,0.143,3.925,0.086,6.434c-0.093,4.128,0.02,6.518-0.857,10.552c-0.613,2.812-0.849,4.51-2.231,7.035
	c-0.785,1.431-1.027,2.549-2.402,3.431c-0.891,0.571-1.539,0.64-2.574,0.857c-1.475,0.311-2.362,0.326-3.86,0.172
	c-2.516-0.258-4.116-0.65-6.091-2.23c-1.646-1.316-2.16-2.527-3.174-4.375c-2.089-3.806-1.824-6.549-2.66-10.808
	c-0.987-5.039-1.467-7.917-1.802-13.04c-0.263-4.04-0.267-6.336-0.085-10.38c0.193-4.3-0.333-6.927,1.115-10.981
	c1.478-4.133,1.802-8.321,6.262-9.35c2.316-0.515,4.014-0.685,6.605-0.858c2.771-0.186,4.402-0.567,7.121,0
	c1.844,0.384,3.071,0.458,4.546,1.63c2.331,1.851,2.822,4.145,2.746,7.12c-0.073,2.789-0.944,4.718-2.746,6.605
	c-2.916,2.745-4.287,4.492-7.549,6.691c-2.247,1.515-6.005,5.062-6.091,3.346c0-0.429-0.374-0.765-0.514-1.287
	c-0.314-1.162-0.361-1.938,0-3.088c0.455-1.451,1.521-1.829,2.487-3.002c0.907-1.101,1.612-1.59,2.316-2.831
	c0.519-0.913,0.974-1.439,1.029-2.488c0.064-1.204-0.314-1.945-1.029-2.917c-1.573-2.137-4.804-2.488-6.605-1.63
	c-1.201,0.515-1.578,2.79-2.23,4.718c-0.957,2.824-0.94,4.579-1.201,7.549c-0.379,4.333-0.703,6.892,0.172,11.152
	c0.756,3.682,1.292,5.917,3.431,9.007c1.522,2.198,2.131,4.856,4.804,4.891c0.82,0.009,1.305-0.108,2.059-0.429
	c0.879-0.377,1.372-0.714,1.973-1.458c1.056-1.308,0.752-2.534,0.944-4.205c0.206-1.794,0.387-2.867,0-4.631
	c-0.166-0.754-0.555-1.116-0.601-1.887c-0.069-1.162-0.003-2.154,0.943-2.831C208.038,51.276,209.069,51.823,210.261,52.275
	L210.261,52.275z"/>
<path fill="#007A33" d="M219.097,22.421c1.189-0.614,2.096-0.087,3.432,0c1.618,0.107,2.705-0.198,4.117,0.601
	c1.884,1.064,2.164,2.69,2.917,4.718c0.802,2.155,0.456,3.569,0.859,5.833c0.544,3.069,0.56,4.912,1.715,7.807
	c0.831,2.085,1.17,3.46,2.745,5.061c1.131,1.151,1.839,2.049,3.431,2.316c1.167,0.196,2.073,0.301,3.003-0.429
	c1.423-1.116,0.466-2.85,0.17-4.633c-0.33-1.998-1.016-3.018-1.972-4.804c-1.057-1.971-1.862-2.973-3.261-4.718
	c-1.155-1.442-1.887-2.488-3.173-3.517c-2.059-1.63-1.562-2.113-1.202-3.517c0.302-1.17,1.206-1.461,2.059-2.316
	c1.124-1.125,1.623-2.044,3.089-2.659c2.038-0.856,3.78-0.903,5.662,0.257c2.207,1.361,2.053,3.571,2.66,6.091
	c0.696,2.896,0.273,4.655,0.257,7.635l-0.257,46.238c-0.005,0.932-1.202,0.772-2.231,0.857c-3.688,0.259-2.745-0.342-6.262,0
	c-1.2,0-1.973-1.372-1.973-2.658c0-1.974,0.2-3.558,0.172-5.833c-0.064-5.047-0.399-7.916-1.373-12.868
	c-0.688-3.495-0.889-5.572-2.316-8.835c-0.858-1.962-1.019-3.429-2.66-4.804c-1.008-0.846-3.015-2.861-3.001-1.544l0.343,35.686
	c0.006,0.749-0.601,0.857-1.717,0.857c-2.488,0-3.345-0.257-6.433,0.259c-0.859,0.17-0.687-1.545-0.601-2.318
	c0.429-4.632,0.833-6.74,1.2-11.066c0.45-5.275,0.773-8.259,0.773-13.553s-0.408-8.272-0.773-13.554
	c-0.267-3.883-0.527-6.066-0.771-9.951c-0.21-3.343-0.515-4.804-0.429-8.579C217.296,23.452,218.149,22.912,219.097,22.421
	L219.097,22.421z"/>
<path fill="#007A33" d="M278.374,38.893c-0.583-5.237,0.257-6.863-2.401-13.296c-0.516-1.287-2.66-3.003-4.118-3.175
	c-5.232-0.6-8.149,0.172-13.469,0.172c-1.115,0-1.887,0.052-2.83,0.687c-1.086,0.73-1.192,1.672-1.802,2.831
	c-1.167,2.219-1.455,3.657-2.059,6.09c-0.611,2.467-0.753,3.908-1.028,6.434c-0.568,5.188-0.4,8.172-0.087,13.382
	c0.317,5.252,0.604,8.239,1.715,13.383c1.202,5.554,2.059,9.092,4.375,13.896c0.601,1.202,1.035,1.929,2.059,2.832
	c1.056,0.93,1.887,1.715,3.173,1.715c3.088,0.172,2.059,0.429,8.064-0.172c1.03,0,1.51-1.38,2.316-2.401
	c2.026-2.56,2.457-4.52,3.433-7.636c0.767-2.447,0.896-3.912,1.371-6.434c0.944-5.012,1.501-7.861,1.803-12.953
	C279.243,48.267,279.037,44.848,278.374,38.893z M272.54,50.302c-0.152,3.57-0.509,5.572-1.114,9.093
	c-0.295,1.714-0.341,2.715-0.857,4.375c-0.397,1.274-0.516,2.401-1.287,3.174c-3.774,3.003-4.566-5.319-6.349-9.35
	c-0.941-2.128-0.623-3.708-1.887-5.662c-1.118-1.728-2.945-1.805-3.774-3.688c-0.625-1.42-0.541-2.395-0.514-3.946
	c0.028-1.7,0.347-2.643,0.771-4.289c0.598-2.317,0.49-4.02,2.146-5.748c1.243-1.298,1.63-2.659,4.031-2.23
	c1.543,0.257,2.596,0.592,3.946,1.544c1.063,0.75,1.575,1.332,2.315,2.402c1.025,1.481,1.219,2.558,1.716,4.289
	c0.553,1.924,0.693,3.066,0.857,5.062C272.7,47.26,272.624,48.363,272.54,50.302z"/>
<path fill="#007A33" d="M306.252,52.446c0.678,0.238,1.143,0.331,1.631,0.858c0.662,0.715,0.48,1.45,0.686,2.402
	c0.527,2.455,0.281,3.923,0.256,6.434c-0.037,4.099-0.057,6.464-0.941,10.465c-0.623,2.811-0.871,4.499-2.232,7.035
	c-0.785,1.464-1.006,2.615-2.4,3.518c-0.861,0.557-1.481,0.646-2.485,0.857c-1.506,0.318-2.419,0.272-3.946,0.085
	c-2.48-0.302-4.023-0.708-6.005-2.229c-1.683-1.292-2.291-2.449-3.346-4.29c-2.167-3.782-1.688-6.61-2.488-10.894
	c-0.941-5.046-1.467-7.917-1.802-13.04c-0.263-4.04-0.266-6.336-0.085-10.38c0.192-4.3-0.323-6.923,1.114-10.98
	c1.46-4.12,1.802-8.321,6.178-9.351c2.315-0.515,4.065-0.685,6.69-0.858c2.805-0.185,4.465-0.619,7.202,0
	c1.748,0.395,2.885,0.523,4.291,1.63c2.371,1.868,2.938,4.188,2.832,7.206c-0.1,2.77-0.945,4.632-2.832,6.52
	c-2.66,2.831-4.135,4.599-7.375,6.777c-2.262,1.518-6.005,5.062-6.177,3.26c0-0.343-0.312-0.77-0.429-1.287
	c-0.259-1.142-0.335-1.88,0-3.002c0.442-1.482,1.492-1.905,2.487-3.088c0.916-1.088,1.752-1.48,2.401-2.745
	c0.465-0.904,0.764-1.472,0.772-2.488c0.011-1.207-0.312-1.947-1.029-2.917c-1.557-2.108-4.547-2.574-6.52-1.63
	c-1.029,0.429-1.576,2.737-2.23,4.632c-0.981,2.85-0.953,4.631-1.201,7.635c-0.354,4.302-0.588,6.833,0.258,11.066
	c0.731,3.664,1.138,5.934,3.259,9.008c1.574,2.277,2.3,5.142,5.062,4.975c0.761-0.045,1.192-0.197,1.888-0.514
	c0.913-0.417,1.446-0.749,2.058-1.543c0.977-1.276,0.676-2.436,0.857-4.033c0.203-1.828,0.395-2.92,0-4.717
	c-0.168-0.754-0.568-1.116-0.602-1.887c-0.047-1.143,0.084-2.103,1.029-2.746C304.105,51.491,305.078,52.036,306.252,52.446
	L306.252,52.446z"/>
<path fill="#007A33" d="M340.137,68.059c0.104-3.546-0.086-5.553-0.344-9.092c-0.416-5.753-0.914-8.984-1.887-14.669
	c-0.783-4.579-1.215-7.175-2.402-11.667c-0.631-2.395-0.662-3.892-1.801-6.091c-0.568-1.096-0.678-1.992-1.717-2.659
	c-0.783-0.505-1.398-0.425-2.314-0.6c-2.695-0.517-4.547-0.258-7.035,0c-3.346,0.343-3.518,4.203-4.719,7.12
	c-1.717,4.461-2.471,7.349-3.516,12.182c-1.391,6.424-1.49,10.18-2.061,16.728c-0.562,6.475-0.857,10.294-0.857,16.642
	c0,2.746-1.029,8.493,1.803,7.292c0.857-0.342,1.574,0.333,2.488,0c2.299-0.838,0.797-3.749,1.113-6.175
	c0.326-2.497-0.721-4.242,0.516-6.434c0.789-1.402,1.609-1.979,2.916-2.917c2.945-2.119,6.434-1.974,9.008-2.316
	c0.857,0,0.857,1.287,0.943,2.059c0.086,1.887-1.025,2.649-1.803,4.288c-1.012,2.139-2.381,3.014-2.916,5.32
	c-0.445,1.923-0.342,3.001,0,5.061c0,0.514,0.562,1.1,1.201,1.115l11.152,0.259C341.424,83.582,339.961,74.142,340.137,68.059z
	 M319.549,46.613c0-3.174,0.963-5.068,2.746-7.721c0.596-0.889,0.65-2.015,1.715-2.145c0.859-0.105,1.629,0.429,1.973,1.029
	c1.285,2.488,1.309,3.248,1.887,5.405c0.713,2.656,0.857,4.46,1.201,6.948c0,1.03,0.445,2.417-0.602,2.745l-7.377,2.316
	C317.85,56.209,319.549,51.417,319.549,46.613z M329.07,60.081l-9.352,2.316c-0.619,0.154-1.457-0.858-1.199-1.115
	c1.887-1.887,7.463-3.517,10.379-4.118c0.43,0,1.244,0.501,1.373,1.201C330.42,59.168,329.863,59.885,329.07,60.081z"/>
<path fill="#007A33" d="M348.629,23.022c4.891-1.201,7.975-1.461,13.127-1.458c3.287,0.001,5.252-0.327,8.406,0.601
	c1.168,0.344,2.053,0.257,2.916,1.116c1.123,1.114,0.848,2.366,0.945,3.946c0.137,2.279-0.383,3.585-1.117,5.748
	c-0.799,2.352-1.098,3.969-2.916,5.662c-1.24,1.154-2.094,1.944-3.775,2.145c-1.211,0.144-2.209,0.333-3.088-0.515
	c-1.238-1.192-0.09-2.767,0.516-4.375c0.305-0.812,0.938-1.11,1.029-1.973c0.121-1.162-0.549-1.776-1.201-2.745
	c-1.303-1.932-2.682-2.691-4.891-3.431c-1.533-0.515-2.539-0.875-4.117-0.515c-1.094,0.25-1.885,0.4-2.574,1.287
	c-0.691,0.892-0.613,1.703-0.6,2.831c0.018,1.471,0.426,2.303,1.115,3.603c1.086,2.048,2.557,2.572,4.203,4.204
	c2.656,2.63,4.297,3.973,6.863,6.691c1.902,2.017,3.164,3.021,4.719,5.319c1.607,2.379,2.467,3.844,3.258,6.605
	c0.311,1.085,0.426,1.716,0.602,2.831c0.645,4.101,0.193,6.533-0.43,10.638c-0.521,3.441-0.602,5.543-2.145,8.663
	c-0.773,1.564-0.959,2.793-2.402,3.774c-1.436,0.979-2.916,0.858-4.375,0.858c-3.859,0-5.66,0.572-9.178-0.085
	c-1.533-0.286-2.459-0.35-3.861-1.03c-2.299-1.113-3.404-2.354-4.719-4.547c-1.582-2.646-1.516-4.643-1.715-7.721
	c-0.221-3.425,0.117-5.419,0.943-8.75c0.762-3.062,1.201-4.803,2.918-7.548c0.771-1.287,1.133-1.084,2.059-1.287
	c1.652-0.362,2.619,0.75,3.945,1.801c1.098,0.87,1.512,1.599,2.316,2.745c1.211,1.728,1.768,2.822,2.488,4.805
	c0.76,2.09,0.752,3.396,1.201,5.576c0.275,1.336,0.824,2.073,0.686,3.431c-0.092,0.906,0.098,1.766-0.686,2.231
	c-0.465,0.275-0.857,0.329-1.373,0.17c-0.902-0.275-0.701-1.297-1.115-2.144c-0.658-1.346-0.562-2.383-1.543-3.518
	c-0.641-0.738-0.998-1.52-1.975-1.543c-1.205-0.03-1.525,1.194-2.145,2.231c-0.408,0.683-0.545,1.125-0.771,1.887
	c-0.367,1.228-0.541,1.981-0.43,3.259c0.121,1.37,0.367,2.192,1.117,3.346c0.68,1.053,1.199,2.23,2.314,2.23
	c2.145,0.257,3.635,0.417,5.748-0.343c1.512-0.542,2.338-1.054,3.518-2.145c2.477-2.291,3.145-4.609,3.346-7.978
	c0.127-2.164-0.189-3.429-0.859-5.49c-1.189-3.663-3.051-5.242-5.576-8.15c-2.172-2.502-4.039-3.299-6.176-5.833
	c-3.264-3.875-4.865-6.449-6.52-11.238c-1.664-4.821-2.23-6.863-1.801-12.954C344.855,24.48,347.256,23.366,348.629,23.022
	L348.629,23.022z"/>
<path fill="#007A33" d="M402.674,68.489c0.137-3.579-0.002-5.608-0.258-9.179c-0.408-5.729-1.086-8.923-2.059-14.583
	c-0.791-4.604-1.137-7.232-2.314-11.752c-0.627-2.397-0.662-3.892-1.803-6.091c-0.568-1.096-0.678-1.992-1.715-2.659
	c-0.787-0.505-1.4-0.425-2.316-0.601c-2.695-0.517-4.547-0.257-7.035,0c-3.346,0.343-3.602,4.204-4.719,7.12
	c-1.801,4.461-2.482,7.346-3.518,12.182c-1.373,6.423-1.402,10.183-1.973,16.728c-0.562,6.477-0.941,10.295-0.941,16.642
	c0,2.745-0.945,8.493,1.799,7.377c0.773-0.429,1.576,0.328,2.488,0c2.342-0.835,0.9-3.793,1.201-6.262
	c0.305-2.494-0.867-4.231,0.342-6.433c0.777-1.41,1.613-1.977,2.918-2.918c2.996-2.158,6.434-1.973,9.178-2.316
	c0.688,0,0.773,1.288,0.773,2.059c0.258,1.888-0.973,2.597-1.715,4.204c-1.006,2.174-2.389,3.069-2.918,5.404
	c-0.436,1.925-0.256,3.089,0,5.062c0.086,0.429,0.477,1.191,1.115,1.2l11.152,0.172C403.963,83.899,402.443,74.541,402.674,68.489z
	 M382.086,46.871c0-3.174,0.99-5.094,2.83-7.721c0.6-0.856,0.676-1.956,1.717-2.059c0.834-0.083,1.629,0.429,1.887,1.029
	c1.287,2.402,1.309,3.248,1.887,5.404c0.721,2.688,0.943,4.46,1.201,7.034c0.086,0.858,0.412,2.338-0.6,2.66l-7.293,2.316
	C380.439,56.576,382.086,51.76,382.086,46.871z M391.607,60.51l-9.35,2.315c-0.643,0.16-1.287-0.943-1.201-1.2
	c1.973-1.888,7.463-3.518,10.379-4.032c0.344,0,1.127,0.471,1.287,1.115C392.922,59.51,392.41,60.312,391.607,60.51z"/>
<g>
	<path fill="#007A33" d="M117.569,96.171h10.269v3.734h-6.176v1.815h5.302v3.47h-5.302v5.55h-4.092V96.171z"/>
	<path fill="#007A33" d="M136.691,99.64h1.916c1.563,0,2.028,0.531,2.028,1.448c0,1.307-1.042,1.449-1.804,1.449h-2.14V99.64z
		 M132.6,110.741h4.092v-5.08h2.177c1.619,0,1.73,1.448,1.841,2.836c0.056,0.756,0.13,1.51,0.335,2.244h4.093
		c-0.372-0.673-0.391-2.408-0.447-3.121c-0.148-1.816-0.837-3.163-1.953-3.633c1.358-0.551,1.99-2.143,1.99-3.653
		c0-2.755-2.009-4.162-4.334-4.162H132.6V110.741z"/>
	<path fill="#007A33" d="M154.084,105.538l1.284-4.49h0.037l1.191,4.49H154.084z M148.485,110.741h4.111l0.595-2.081h4.223
		l0.558,2.081h4.241l-4.837-14.569h-3.999L148.485,110.741z"/>
	<path fill="#007A33" d="M166.454,96.171h4.186l3.869,7.795h0.037v-7.795h3.869v14.569h-3.981l-4.074-7.958h-0.037v7.958h-3.869
		V96.171z"/>
	<path fill="#007A33" d="M192.236,101.599c-0.074-0.53-0.446-2.143-2.139-2.143c-1.916,0-2.53,2.041-2.53,4c0,1.959,0.614,4,2.53,4
		c1.377,0,1.916-1.062,2.158-2.428h4.018c0,2.938-2.176,6.061-6.064,6.061c-4.297,0-6.734-3.326-6.734-7.632
		c0-4.591,2.642-7.632,6.734-7.632c3.646,0.02,5.655,2.123,6.008,5.775H192.236z"/>
	<path fill="#007A33" d="M201.295,96.171h4.092v5.061h3.833v-5.061h4.092v14.569h-4.092v-5.774h-3.833v5.774h-4.092V96.171z"/>
	<path fill="#007A33" d="M218.725,96.171h4.092v14.569h-4.092V96.171z"/>
	<path fill="#007A33" d="M231.485,105.843c0,0.368,0.056,0.693,0.148,0.96c0.297,0.878,1.191,1.061,1.954,1.061
		c0.669,0,1.692-0.244,1.692-1.327c0-0.754-0.577-0.958-2.865-1.673c-2.102-0.652-4.501-1.285-4.501-4.224
		c0-3.367,2.622-4.816,5.357-4.816c2.882,0,5.432,1.204,5.543,4.754h-3.869c0.074-0.551-0.149-0.918-0.484-1.163
		c-0.335-0.265-0.8-0.367-1.209-0.367c-0.557,0-1.469,0.162-1.469,0.979c0.074,1.042,1.972,1.266,3.85,1.836
		c1.879,0.572,3.74,1.532,3.74,4.204c0,3.796-3.181,5.021-6.139,5.021c-1.507,0-5.804-0.592-5.841-5.245H231.485z"/>
	<path fill="#007A33" d="M243.948,96.171h4.092v14.569h-4.092V96.171z"/>
	<path fill="#007A33" d="M253.473,96.171h4.185l3.869,7.795h0.038v-7.795h3.868v14.569h-3.98l-4.074-7.958h-0.037v7.958h-3.869
		V96.171z"/>
	<path fill="#007A33" d="M280.612,109.252c-0.912,1.284-2.326,1.836-3.776,1.836c-3.925,0-6.344-3.347-6.344-7.49
		c0-5.55,3.554-7.774,6.548-7.774c3.386,0,5.525,2.02,6.12,5.449h-3.925c-0.148-1.061-0.968-1.817-1.935-1.817
		c-2.809,0-2.717,3.245-2.717,4.245c0,1.367,0.503,3.755,2.996,3.755c0.949,0,1.916-0.531,2.12-1.612h-1.804v-3.122h5.432v8.019
		h-2.586L280.612,109.252z"/>
	<path fill="#007A33" d="M293.396,96.171h4.187l3.869,7.795h0.037v-7.795h3.867v14.569h-3.979l-4.074-7.958h-0.037v7.958h-3.87
		V96.171z"/>
	<path fill="#007A33" d="M310.805,96.171h10.994v3.734h-6.9v1.815h6.268v3.47h-6.268v1.816h7.105v3.733h-11.199V96.171z"/>
	<path fill="#007A33" d="M330.318,99.906h-3.721v-3.734h11.533v3.734h-3.721v10.835h-4.092V99.906z"/>
	<path fill="#007A33" d="M356.211,110.741h-3.979l-1.434-8.877h-0.037l-1.395,8.877h-4l-3.609-14.569h4.02l1.617,8.999h0.037
		l1.6-8.999h3.609l1.562,9.121h0.037l1.654-9.121h4.037L356.211,110.741z"/>
	<path fill="#007A33" d="M367.875,103.456c0-3.244,1.6-4,2.641-4c1.043,0,2.643,0.756,2.643,4c0,3.245-1.6,4-2.643,4
		C369.475,107.456,367.875,106.701,367.875,103.456z M363.783,103.456c0,4.449,2.697,7.632,6.732,7.632
		c4.037,0,6.734-3.184,6.734-7.632s-2.697-7.632-6.734-7.632C366.48,95.824,363.783,99.007,363.783,103.456z"/>
	<path fill="#007A33" d="M386.383,99.64h1.916c1.564,0,2.029,0.531,2.029,1.448c0,1.307-1.043,1.449-1.807,1.449h-2.139V99.64z
		 M382.291,110.741h4.092v-5.08h2.178c1.619,0,1.73,1.448,1.842,2.836c0.055,0.756,0.129,1.51,0.334,2.244h4.094
		c-0.373-0.673-0.391-2.408-0.447-3.121c-0.15-1.816-0.838-3.163-1.953-3.633c1.357-0.551,1.99-2.143,1.99-3.653
		c0-2.755-2.01-4.162-4.334-4.162h-7.795V110.741z"/>
	<path fill="#007A33" d="M399.498,96.171h4.092v5.019h0.037l3.646-5.019h5.041l-4.818,5.692l5.6,8.877h-5.098l-3.273-5.673
		l-1.135,1.367v4.306h-4.092V96.171z"/>
</g>
</svg>
