<svg xmlns="http://www.w3.org/2000/svg" width="72" height="72" viewBox="0 0 72 72"><title>Temps</title><g id="Temps"><g id="Temps-2" data-name="Temps"><path d="M37.1294,36.7932V17.8967a1.1294,1.1294,0,1,0-2.2588,0V37.24a1.1315,1.1315,0,0,0,.3053.7724l13.696,14.6084A1.13,1.13,0,1,0,50.52,51.0756Z" fill="#1e91ff"/><path d="M41.3571,7.5666V5.89A2.4193,2.4193,0,0,0,38.94,3.4731H33.06A2.42,2.42,0,0,0,30.6429,5.89V7.5666a30.1591,30.1591,0,1,0,10.7142,0ZM32.9017,7.239V5.89a.1584.1584,0,0,1,.1584-.1579h5.88a.1583.1583,0,0,1,.1579.1579V8.8474a.1584.1584,0,0,1-.1579.1584H33.06a.1585.1585,0,0,1-.1584-.1584ZM36,65.14A27.8979,27.8979,0,0,1,30.8527,9.8232,2.4178,2.4178,0,0,0,33.06,11.2646h5.88a2.4172,2.4172,0,0,0,2.207-1.4414A27.8979,27.8979,0,0,1,36,65.14Z" fill="#1e91ff"/></g></g></svg>