<svg xmlns="http://www.w3.org/2000/svg" width="72" height="72" viewBox="0 0 72 72"><title>Trouver une agence</title><g id="Trouver_une_agence" data-name="Trouver une agence"><g id="Trouver"><path d="M41.91,5.6977A30.0889,30.0889,0,0,0,16.8478,52.44L.4377,64.2236a1.05,1.05,0,1,0,1.2247,1.7051L18.0738,54.1436A30.0879,30.0879,0,1,0,41.91,5.6977ZM25.7626,58.495c3.3673-8.8877,9.6725-14.3762,16.6538-14.3762,6.7859,0,13.0054,5.2666,16.4278,13.7961a27.7924,27.7924,0,0,1-33.0816.58Zm34.93-2.1225c-3.8415-9.0153-10.7175-14.5469-18.2762-14.5469-7.7843,0-14.7634,5.7821-18.5434,15.1977a27.8771,27.8771,0,1,1,36.82-.6508Z" fill="#1e91ff"/><path d="M42.076,20.5614a9.5779,9.5779,0,1,0,9.5779,9.5779A9.5779,9.5779,0,0,0,42.076,20.5614Zm0,17.0558a7.4779,7.4779,0,1,1,7.478-7.4779A7.4864,7.4864,0,0,1,42.076,37.6172Z" fill="#1e91ff"/></g></g><g id="Search"><g id="Trouver-2" data-name="Trouver"><path d="M41.91,5.6977A30.0889,30.0889,0,0,0,16.8478,52.44L.4377,64.2236a1.05,1.05,0,1,0,1.2247,1.7051L18.0738,54.1436A30.0879,30.0879,0,1,0,41.91,5.6977ZM25.7626,58.495c3.3673-8.8877,9.6725-14.3762,16.6538-14.3762,6.7859,0,13.0054,5.2666,16.4278,13.7961a27.7924,27.7924,0,0,1-33.0816.58Zm34.93-2.1225c-3.8415-9.0153-10.7175-14.5469-18.2762-14.5469-7.7843,0-14.7634,5.7821-18.5434,15.1977a27.8771,27.8771,0,1,1,36.82-.6508Z" fill="#1e91ff"/><path d="M42.076,20.5614a9.5779,9.5779,0,1,0,9.5779,9.5779A9.5779,9.5779,0,0,0,42.076,20.5614Zm0,17.0558a7.4779,7.4779,0,1,1,7.478-7.4779A7.4864,7.4864,0,0,1,42.076,37.6172Z" fill="#1e91ff"/></g></g></svg>